# xmcd CD database file
#
# Track frame offsets:
#	150
#	26908
#	52765
#	84212
#	110274
#	133659
#	162562
#	194564
#	207661
#
# Disc length: 2994 seconds
#
# Revision: 0
# Processed by: cddbd v1.5.2PL0 Copyright (c) Steve Scherf et al.
# Submitted via: CDex 1.51
#
DISCID=7b0bb009
DTITLE=Johannes Enders - Soprano
DYEAR=2004
DGENRE=Jazz
TTITLE0=Zen Pictures
TTITLE1=Beginner's Mind
TTITLE2=Einzeller
TTITLE3=Little Peace Walz
TTITLE4=Beginner's Mind
TTITLE5=Descending
TTITLE6=Atmosphere
TTITLE7=Peace
TTITLE8=Zen Pictures
EXTD=YEAR: 2004
EXTT0=
EXTT1=
EXTT2=
EXTT3=
EXTT4=
EXTT5=
EXTT6=
EXTT7=
EXTT8=
PLAYORDER=
